<svg width="163" height="152" viewBox="0 0 163 152" fill="none" xmlns="http://www.w3.org/2000/svg">
<g clip-path="url(#clip0_411_369)">
<path d="M109.873 107.755H51.4009C46.486 107.755 42.4874 103.756 42.4874 98.8404V40.3628C42.4874 35.4474 46.486 31.4485 51.4009 31.4485H109.873C114.788 31.4485 118.787 35.4474 118.787 40.3628V98.8404C118.787 103.756 114.788 107.755 109.873 107.755ZM51.4009 32.8748C47.2658 32.8748 43.9136 36.2273 43.9136 40.3628V98.8404C43.9136 102.976 47.2658 106.328 51.4009 106.328H92.3595C106.167 106.328 117.361 95.1339 117.361 81.3249V40.3628C117.361 36.2273 114.009 32.8748 109.873 32.8748L51.4009 32.8748Z" fill="#F2F2F2"/>
<path d="M57.7048 38.9558C54.9374 38.9558 52.686 41.2074 52.686 43.975V51.8312C52.686 54.5989 54.9374 56.8505 57.7048 56.8505H65.5603C68.3278 56.8505 70.5791 54.5989 70.5791 51.8312V43.975C70.5791 41.2074 68.3278 38.9558 65.5603 38.9558H57.7048Z" fill="#F2F2F2"/>
<path d="M57.7048 61.072C54.9374 61.072 52.686 63.3236 52.686 66.0913V73.9475C52.686 76.7152 54.9374 78.9667 57.7048 78.9667H65.5603C68.3278 78.9667 70.5791 76.7152 70.5791 73.9475V66.0913C70.5791 63.3236 68.3278 61.072 65.5603 61.072H57.7048Z" fill="#F2F2F2"/>
<path d="M57.7048 83.1882C54.9374 83.1882 52.686 85.4398 52.686 88.2075V96.0637C52.686 98.8314 54.9374 101.083 57.7048 101.083H65.5603C68.3278 101.083 70.5791 98.8314 70.5791 96.0637V88.2075C70.5791 85.4398 68.3278 83.1882 65.5603 83.1882H57.7048Z" fill="#F2F2F2"/>
<path d="M62.9141 19.7885C59.427 19.7885 56.5902 22.6255 56.5902 26.1128V36.0119C56.5902 39.4993 59.427 42.3363 62.9141 42.3363H72.8122C76.2993 42.3363 79.1361 39.4993 79.1361 36.0119V26.1128C79.1361 22.6255 76.2993 19.7885 72.8122 19.7885H62.9141Z" fill="#FF0651"/>
<path d="M95.5013 47.4521C92.0142 47.4521 89.1775 50.2892 89.1775 53.7765V63.6756C89.1775 67.163 92.0142 70 95.5013 70H105.399C108.887 70 111.723 67.163 111.723 63.6756V53.7765C111.723 50.2892 108.887 47.4521 105.399 47.4521H95.5013Z" fill="#FF0651"/>
<path d="M81.334 147.09L79.3232 147.073L78.4331 139.135L81.4008 139.16L81.334 147.09Z" fill="#A0616A"/>
<path d="M74.8931 150.288C74.8887 150.783 75.2877 151.19 75.7844 151.195L79.7824 151.228L80.4823 149.809L80.7394 151.235L82.2479 151.249L81.867 146.163L81.3422 146.128L79.2014 145.98L78.5108 145.934L78.4986 147.373L75.287 149.552C75.0427 149.718 74.8955 149.993 74.8931 150.288Z" fill="#2F2E41"/>
<path d="M91.5649 147.09L89.5541 147.073L88.664 139.135L91.6317 139.16L91.5649 147.09Z" fill="#A0616A"/>
<path d="M85.124 150.288C85.1196 150.783 85.5186 151.19 86.0153 151.195L90.0133 151.228L90.7132 149.809L90.9703 151.235L92.4788 151.249L92.0979 146.163L91.5731 146.128L89.4323 145.98L88.7417 145.934L88.7295 147.373L85.5179 149.552C85.2736 149.718 85.1264 149.993 85.124 150.288Z" fill="#2F2E41"/>
<path d="M73.4433 82.9147L81.5942 83.1721L89.316 84.8882C89.316 84.8882 88.5438 85.8321 91.1178 88.4063C91.1178 88.4063 94.5498 94.4127 92.1474 100.248L91.1178 123.587C91.1178 123.587 94.1197 140.039 91.8261 145.276L88.7947 145.465L83.6653 123.777L81.1652 100.419L79.964 123.415C79.964 123.415 84.5593 139.199 81.6575 145.465L78.3744 145.276L72.7569 123.415C72.7569 123.415 70.3545 98.1882 70.6977 93.383C71.0409 88.5779 73.4433 82.9147 73.4433 82.9147Z" fill="#2F2E41"/>
<path d="M100.816 46.035C99.7015 46.3235 99.0321 47.4608 99.3206 48.5751C99.4528 49.0857 99.7644 49.5011 100.169 49.7755L100.169 49.7784L100.011 53.6074L102.941 54.9634L103.175 49.0712L103.154 49.0718C103.408 48.6192 103.496 48.0724 103.356 47.5302C103.067 46.4158 101.93 45.7464 100.816 46.035Z" fill="#A0616A"/>
<path d="M84.4405 59.7004C83.825 59.0903 83.468 58.2631 83.4546 57.3635C83.4367 56.1568 84.0414 55.0615 85.0721 54.4337C86.2591 53.7108 87.7434 53.7839 88.8536 54.6199L98.054 61.5477L99.6934 51.5676L103.213 52.7007L102.373 65.6962C102.314 66.6052 101.801 67.406 100.999 67.8383C100.197 68.2706 99.246 68.2598 98.4543 67.8094L85.1584 60.2441C84.8913 60.0921 84.6508 59.9089 84.4405 59.7004Z" fill="#3F3D56"/>
<path d="M70.4116 40.4527C70.9998 41.4421 70.6745 42.7211 69.6851 43.3093C69.2318 43.5788 68.7181 43.6545 68.2375 43.5644L68.2356 43.5665L65.6523 46.3969L62.617 45.2969L66.599 40.9479L66.613 40.9627C66.7513 40.4624 67.0739 40.0123 67.5553 39.7261C68.5446 39.1379 69.8235 39.4632 70.4116 40.4527Z" fill="#A0616A"/>
<path d="M71.5274 61.5679L56.7595 57.5784C55.8802 57.3408 55.1971 56.6788 54.9321 55.8072C54.667 54.9357 54.866 54.0053 55.4642 53.3184L64.0166 43.4984L67.3137 45.172L61.452 53.4136L72.8627 54.972C74.2397 55.1601 75.3453 56.1533 75.6792 57.5024C75.9692 58.674 75.6276 59.8776 74.7653 60.7219C74.1225 61.3513 73.2866 61.6873 72.42 61.6872C72.124 61.6872 71.8241 61.648 71.5274 61.5679Z" fill="#3F3D56"/>
<path d="M92.5818 86.3483L71.9306 87.2957C71.3634 86.4344 71.517 85.1391 72.3113 83.5172C75.3104 77.3933 73.0327 65.8081 71.5005 59.7756C71.0706 58.0831 72.2247 56.4004 73.9622 56.2267L75.9093 56.032L77.7092 50.5371H84.0128L86.628 53.5251L91.0662 56.2214C90.2583 64.5432 86.8162 76.2943 91.7199 82.1874C92.7924 83.4763 93.0965 84.87 92.5818 86.3483Z" fill="#3F3D56"/>
<path d="M80.0592 50.664C83.4502 50.664 86.1992 47.9148 86.1992 44.5235C86.1992 41.1321 83.4502 38.3829 80.0592 38.3829C76.6682 38.3829 73.9192 41.1321 73.9192 44.5235C73.9192 47.9148 76.6682 50.664 80.0592 50.664Z" fill="#A0616A"/>
<path d="M87.0071 40.5928C87.8613 37.478 78.5508 34.807 76.7415 37.3154C76.4899 36.9588 75.5601 36.7422 75.1335 36.8516C74.7069 36.9609 74.3481 37.2344 73.9981 37.4992C73.5168 37.8689 73.018 38.2518 72.7227 38.7835C72.4252 39.3129 72.3792 40.0349 72.7796 40.4944C73.0968 40.8598 73.6542 42.8013 74.1311 42.8976C74.4636 42.9654 74.7437 43.0201 74.9843 43.0595C75.1987 42.7467 75.7454 42.3536 75.7061 41.9751C76.0298 42.1896 75.9115 42.5668 75.8463 42.9523C75.6289 44.2361 70.7316 54.1742 73.5365 51.2456C73.8144 51.4097 74.1578 51.5629 74.5538 51.7029C75.2254 50.6899 75.7767 49.4953 76.1399 48.246L76.1424 48.2691C76.2675 49.3548 77.0608 50.2456 78.1104 50.5497C82.3208 51.7696 85.7265 49.9796 86.8981 46.7516C86.4692 45.8809 86.2823 45.9754 86.3208 45.9495C86.8562 45.5887 87.592 45.8247 87.8221 46.428C87.89 46.6058 87.9516 46.7577 88.0051 46.872C88.6154 44.6884 89.3413 45.0036 87.0071 40.5928Z" fill="#2F2E41"/>
<path d="M84.1025 38.333L83.6724 36.134C83.6362 35.9492 83.6019 35.7486 83.6853 35.5797C83.7923 35.3627 84.0676 35.2728 84.3071 35.3074C84.5466 35.342 84.7257 35.5607 84.964 35.6029C85.7925 35.7493 86.8876 34.931 87.1844 37.0013C87.3082 37.8645 88.6855 37.9557 89.1455 38.6966C89.6054 39.4374 89.6619 40.5067 89.0342 41.112C88.5328 41.5954 87.7277 41.6511 87.0765 41.4042C86.4254 41.1573 85.9028 40.6585 85.4463 40.1326C84.9898 39.6066 84.5764 39.0375 84.0499 38.5816" fill="#2F2E41"/>
<path d="M87.3351 41.6775C85.655 41.4428 84.5098 40.8317 83.9313 39.8614C83.1742 38.5912 83.6814 37.1926 83.7033 37.1337L84.0584 37.2657C84.0537 37.2786 83.5937 38.5588 84.2588 39.6706C84.7762 40.5355 85.8289 41.0845 87.3874 41.3023L87.3351 41.6775Z" fill="#FF0651"/>
<path d="M147.001 146.889C147.611 146.927 147.947 146.17 147.486 145.729L147.44 145.547C147.447 145.532 147.453 145.517 147.459 145.503C148.075 144.034 150.163 144.044 150.773 145.515C151.315 146.821 152.006 148.129 152.176 149.51C152.252 150.119 152.217 150.74 152.082 151.338C153.353 148.563 154.021 145.533 154.021 142.485C154.021 141.72 153.979 140.954 153.893 140.19C153.823 139.566 153.726 138.945 153.6 138.33C152.92 135.004 151.448 131.837 149.325 129.191C148.304 128.633 147.453 127.761 146.938 126.715C146.754 126.338 146.609 125.932 146.54 125.519C146.657 125.534 146.978 123.765 146.891 123.656C147.053 123.411 147.342 123.289 147.519 123.049C148.399 121.857 149.61 122.065 150.243 123.685C151.594 124.367 151.607 125.498 150.778 126.586C150.25 127.278 150.178 128.214 149.715 128.955C149.763 129.016 149.812 129.075 149.86 129.136C150.733 130.256 151.488 131.46 152.125 132.724C151.945 131.319 152.21 129.626 152.663 128.534C153.179 127.291 154.145 126.243 154.996 125.168C156.018 123.877 158.113 124.44 158.293 126.077C158.295 126.093 158.297 126.109 158.298 126.125C158.172 126.196 158.048 126.272 157.927 126.352C157.237 126.808 157.476 127.878 158.293 128.004L158.312 128.007C158.266 128.462 158.188 128.913 158.074 129.357C159.165 133.578 156.809 135.116 153.444 135.185C153.37 135.223 153.297 135.261 153.223 135.297C153.564 136.257 153.836 137.242 154.038 138.24C154.219 139.122 154.345 140.013 154.415 140.908C154.503 142.038 154.495 143.173 154.4 144.301L154.406 144.261C154.648 143.019 155.322 141.859 156.301 141.055C157.759 139.857 159.819 139.416 161.392 138.453C162.15 137.989 163.12 138.588 162.988 139.466L162.981 139.509C162.747 139.604 162.519 139.714 162.298 139.838C162.171 139.909 162.048 139.985 161.927 140.065C161.237 140.521 161.475 141.591 162.293 141.717L162.311 141.72C162.324 141.722 162.336 141.724 162.349 141.725C161.947 142.68 161.387 143.565 160.687 144.329C160.004 148.014 157.073 148.364 153.937 147.291H153.935C153.592 148.784 153.092 150.243 152.448 151.633H147.135C147.115 151.574 147.098 151.513 147.081 151.454C147.573 151.485 148.068 151.456 148.551 151.367C148.157 150.883 147.763 150.395 147.369 149.911C147.359 149.902 147.352 149.892 147.344 149.883C147.144 149.635 146.942 149.39 146.742 149.142L146.742 149.142C146.73 148.382 146.821 147.624 147.001 146.889Z" fill="#F2F2F2"/>
<path d="M0 151.649C0 151.844 0.156283 152 0.350898 152H162.608C162.802 152 162.959 151.844 162.959 151.649C162.959 151.454 162.802 151.298 162.608 151.298H0.350898C0.156283 151.298 0 151.454 0 151.649Z" fill="#CCCCCC"/>
</g>
<defs>
<clipPath id="clip0_411_369">
<rect width="163" height="152" fill="white"/>
</clipPath>
</defs>
</svg>
