<svg width="25" height="25" viewBox="0 0 25 25" fill="none" xmlns="http://www.w3.org/2000/svg">
<g clip-path="url(#clip0_403_329)">
<path d="M23.4375 3.90625H1.5625C1.1481 3.90625 0.750671 4.07087 0.457646 4.3639C0.16462 4.65692 0 5.05435 0 5.46875L0 19.5312C0 19.9457 0.16462 20.3431 0.457646 20.6361C0.750671 20.9291 1.1481 21.0938 1.5625 21.0938H23.4375C23.8519 21.0938 24.2493 20.9291 24.5424 20.6361C24.8354 20.3431 25 19.9457 25 19.5312V5.46875C25 5.05435 24.8354 4.65692 24.5424 4.3639C24.2493 4.07087 23.8519 3.90625 23.4375 3.90625ZM21.4062 5.85938L13.1562 13.375C12.9774 13.5397 12.7431 13.6311 12.5 13.6311C12.2569 13.6311 12.0226 13.5397 11.8438 13.375L3.59375 5.85938H21.4062ZM1.95312 19.1406V7L10.5312 14.8125C11.0678 15.3066 11.7706 15.5809 12.5 15.5809C13.2294 15.5809 13.9322 15.3066 14.4688 14.8125L23.0469 7V19.1406H1.95312Z" fill="#9A9A9A"/>
</g>
<defs>
<clipPath id="clip0_403_329">
<rect width="25" height="25" fill="white"/>
</clipPath>
</defs>
</svg>
