<svg width="165" height="142" viewBox="0 0 165 142" fill="none" xmlns="http://www.w3.org/2000/svg">
<g clip-path="url(#clip0_411_327)">
<path d="M52.7004 19.6075C51.374 12.5092 53.4622 4.43359 59.2662 0.136963C58.9373 7.98288 61.3943 15.6923 66.2025 21.9011C68.0655 24.2889 70.3863 26.7507 70.3142 29.7783C70.2694 31.6622 69.2505 33.4172 67.9078 34.7394C66.565 36.0616 64.911 37.0149 63.2767 37.9533L63.0223 38.349C58.2316 32.9456 54.0267 26.7058 52.7004 19.6075Z" fill="#F0F0F0"/>
<path d="M59.372 0.245545C56.9335 5.70265 56.2766 11.7893 57.4946 17.641C57.7344 18.9054 58.172 20.1241 58.7914 21.2522C59.4302 22.3316 60.3465 23.2203 61.4449 23.8259C62.4578 24.4111 63.5616 24.8925 64.4146 25.7137C64.8449 26.1406 65.1802 26.6536 65.3984 27.2191C65.6166 27.7846 65.7128 28.3898 65.6806 28.9951C65.6398 30.5054 65.0587 31.9109 64.4427 33.2657C63.7587 34.7699 63.0244 36.3214 63.0687 38.0125C63.0741 38.2174 62.7559 38.2138 62.7505 38.0092C62.6733 35.0669 64.8006 32.704 65.2746 29.8807C65.4958 28.5634 65.3213 27.1714 64.395 26.1502C63.5851 25.2573 62.4473 24.76 61.4166 24.1763C60.3363 23.6012 59.4133 22.7704 58.7282 21.7564C58.0534 20.6635 57.5696 19.4637 57.2973 18.2084C56.6394 15.3921 56.4284 12.4899 56.672 9.60815C56.9318 6.31763 57.7526 3.09579 59.0989 0.0820377C59.1823 -0.10446 59.4548 0.0602667 59.372 0.245545Z" fill="white"/>
<path d="M56.9915 15.7799C55.9819 15.8509 54.9799 15.5608 54.1645 14.9614C53.3491 14.3619 52.7734 13.4921 52.5401 12.5074C52.4936 12.3079 52.8013 12.2263 52.8479 12.426C53.0634 13.3434 53.5998 14.1535 54.3603 14.7102C55.1207 15.2669 56.0551 15.5334 56.9948 15.4616C57.199 15.4463 57.1945 15.7646 56.9915 15.7799Z" fill="white"/>
<path d="M60.8923 23.5968C62.2628 22.0471 62.9988 20.0377 62.9536 17.9694C62.9489 17.7645 63.2672 17.7681 63.2718 17.9728C63.3149 20.1252 62.5447 22.2146 61.115 23.8242C60.9786 23.9775 60.7566 23.7493 60.8923 23.5968Z" fill="white"/>
<path d="M57.3046 6.51525C57.701 6.56915 58.1045 6.52377 58.479 6.38318C58.8535 6.24259 59.1872 6.01119 59.4501 5.70977C59.5845 5.55478 59.8063 5.7832 59.6728 5.93716C59.3808 6.26883 59.0119 6.52393 58.5985 6.68018C58.1851 6.83643 57.7397 6.88906 57.3013 6.83349C57.2595 6.83172 57.22 6.81411 57.1908 6.78424C57.1615 6.75438 57.1447 6.7145 57.1438 6.6727C57.1445 6.63057 57.1618 6.59039 57.1919 6.56091C57.222 6.53143 57.2625 6.51502 57.3046 6.51525Z" fill="white"/>
<path d="M83.0013 6.00845C82.9202 6.10761 82.839 6.20676 82.7586 6.30852C81.6745 7.64722 80.7009 9.07178 79.8475 10.5681C79.7797 10.6828 79.7127 10.8 79.6483 10.9163C77.6307 14.5433 76.3041 18.5134 75.7359 22.6246C75.5113 24.2608 75.4115 25.9117 75.4373 27.563C75.4732 29.8435 75.6935 32.3133 74.9945 34.4108C74.924 34.6304 74.84 34.8455 74.7429 35.0548L63.5248 38.6288C63.4952 38.6241 63.4663 38.622 63.4367 38.6174L62.9953 38.7806C62.988 38.6955 62.9823 38.6071 62.975 38.522C62.9706 38.4727 62.9686 38.4226 62.9642 38.3732C62.962 38.3401 62.96 38.3069 62.9561 38.2771C62.9554 38.2661 62.9547 38.255 62.9548 38.2465C62.9509 38.2168 62.9505 38.1887 62.9475 38.1615C62.9141 37.6675 62.8833 37.1727 62.8577 36.6762C62.8569 36.6737 62.8568 36.6737 62.8585 36.6703C62.666 32.8892 62.7874 29.0588 63.4864 25.3686C63.5075 25.2575 63.5276 25.144 63.5538 25.0313C63.8781 23.3697 64.3377 21.7374 64.9279 20.1506C65.2539 19.2828 65.6236 18.432 66.0357 17.6016C67.1044 15.4579 68.5037 13.4957 70.1823 11.7868C73.529 8.38072 77.9278 6.08281 82.6411 6.01046C82.7617 6.00868 82.8799 6.00766 83.0013 6.00845Z" fill="#F0F0F0"/>
<path d="M83.0215 6.15886C77.7888 9.04801 73.5995 13.5124 71.0487 18.9179C70.4789 20.0718 70.0946 21.3083 69.9098 22.582C69.77 23.8284 69.9665 25.0896 70.4789 26.2344C70.9353 27.3115 71.5268 28.3604 71.7134 29.5296C71.8 30.1295 71.7588 30.741 71.5926 31.3239C71.4263 31.9068 71.1387 32.4479 70.7486 32.9118C69.8066 34.0931 68.4963 34.8655 67.1888 35.5763C65.737 36.3656 64.2165 37.1623 63.2337 38.5393C63.1146 38.7061 62.8627 38.5116 62.9816 38.345C64.6915 35.9493 67.8128 35.3433 69.8911 33.3745C70.8609 32.4558 71.5597 31.2393 71.435 29.8664C71.3259 28.6658 70.7169 27.5837 70.2454 26.4971C69.7291 25.3876 69.4924 24.1686 69.5559 22.9465C69.6751 21.6676 70.0112 20.4183 70.5496 19.2522C71.7199 16.6074 73.2989 14.1632 75.2285 12.0089C77.4171 9.53798 80.0123 7.45968 82.9019 5.86389C83.0807 5.76519 83.1992 6.06081 83.0215 6.15886Z" fill="white"/>
<path d="M71.7676 17.129C70.9187 16.5779 70.2934 15.7431 70.0033 14.7735C69.7132 13.804 69.7771 12.7629 70.1838 11.8361C70.2667 11.6489 70.5616 11.769 70.4786 11.9564C70.0983 12.8187 70.0388 13.7885 70.3108 14.6908C70.5828 15.5931 71.1684 16.3684 71.9619 16.8769C72.1342 16.9876 71.9389 17.2391 71.7676 17.129Z" fill="white"/>
<path d="M70.1756 25.7188C72.203 25.3065 74.0005 24.1452 75.2097 22.4666C75.3293 22.3002 75.5813 22.4947 75.4618 22.6609C74.2002 24.4054 72.3272 25.61 70.2165 26.0344C70.0153 26.0747 69.9755 25.7588 70.1756 25.7188Z" fill="white"/>
<path d="M77.5959 9.92023C77.8799 10.2019 78.2294 10.4086 78.613 10.5218C78.9967 10.635 79.4024 10.6511 79.7939 10.5688C79.9945 10.5259 80.0341 10.8418 79.8348 10.8844C79.4019 10.9734 78.9538 10.955 78.5296 10.8309C78.1055 10.7067 77.7182 10.4806 77.4016 10.1723C77.3693 10.1458 77.3483 10.1079 77.343 10.0664C77.3376 10.025 77.3482 9.98304 77.3727 9.94913C77.3986 9.91588 77.4365 9.89419 77.4783 9.88878C77.5201 9.88336 77.5623 9.89468 77.5959 9.92023Z" fill="white"/>
<path d="M116.736 53.8098C116.765 53.9399 116.785 54.0722 116.794 54.2054L127.155 60.1823L129.673 58.7326L132.358 62.2471L128.149 65.2468C127.809 65.4892 127.399 65.6147 126.982 65.6045C126.565 65.5943 126.162 65.449 125.834 65.1904L115.15 56.7622C114.668 56.9406 114.143 56.9681 113.644 56.8409C113.146 56.7137 112.699 56.4378 112.361 56.05C112.024 55.6622 111.812 55.1808 111.755 54.6699C111.698 54.159 111.797 53.6428 112.041 53.1899C112.284 52.737 112.659 52.3688 113.117 52.1345C113.575 51.9002 114.093 51.8107 114.602 51.878C115.112 51.9453 115.589 52.1662 115.97 52.5113C116.351 52.8563 116.618 53.3093 116.736 53.8098Z" fill="#FFB6B6"/>
<path d="M127.298 59.5224C127.331 59.3699 127.397 59.2263 127.49 59.1014C127.584 58.9765 127.703 58.8733 127.84 58.7987L132.623 56.1925C133.26 55.7117 134.062 55.5032 134.853 55.6126C135.643 55.722 136.358 56.1405 136.84 56.7762C137.323 57.412 137.533 58.2131 137.426 59.0039C137.319 59.7947 136.902 60.5106 136.267 60.9947L132.434 64.8892C132.324 65.0004 132.192 65.0866 132.046 65.1421C131.901 65.1976 131.745 65.221 131.589 65.2108C131.433 65.2005 131.282 65.1569 131.144 65.0828C131.007 65.0087 130.888 64.9059 130.794 64.7813L127.493 60.4051C127.399 60.2806 127.333 60.1373 127.299 59.9849C127.266 59.8326 127.265 59.6748 127.298 59.5224Z" fill="#3F3D56"/>
<path d="M135.628 44.5826C136.316 42.3893 137.881 40.3776 140.046 39.6362C142.211 38.8947 145.38 40.0242 147.007 41.6459C149.984 44.6124 150.076 48.2439 148.031 51.4643C147.624 51.4428 146.22 51.4269 145.808 51.4114L145.226 49.4704V51.3923C142.013 51.293 138.667 51.3552 135.32 51.4195C135.02 49.1394 134.94 46.7759 135.628 44.5826Z" fill="#2F2E41"/>
<path d="M134.923 136.435H131.993L130.598 125.13L134.924 125.13L134.923 136.435Z" fill="#FFB6B6"/>
<path d="M152.987 136.435H150.057L148.662 125.13L152.988 125.13L152.987 136.435Z" fill="#FFB6B6"/>
<path d="M144.429 67.0023L145.093 68.7289L144.961 70.4558L131.963 74.9574L132.608 67.4009L134.069 65.6743L144.429 67.0023Z" fill="#FFB6B6"/>
<path d="M140.32 51.4645C142.883 51.4645 144.962 49.3862 144.962 46.8224C144.962 44.2587 142.883 42.1804 140.32 42.1804C137.756 42.1804 135.677 44.2587 135.677 46.8224C135.677 49.3862 137.756 51.4645 140.32 51.4645Z" fill="#FFB7B7"/>
<path d="M147.339 74.9252V77.8754C147.339 77.8754 150.793 82.363 148.933 85.8163L154.261 131.773H148.683L139.37 92.9885L135.4 130.976H130.619L130.049 100.764C129.899 92.817 131.225 84.9113 133.962 77.4488L147.339 74.9252Z" fill="#2F2E41"/>
<path d="M137.13 40.7777C138.022 40.234 139.043 39.9398 140.088 39.926C141.133 39.9123 142.162 40.1794 143.068 40.6994C143.974 41.2195 144.723 41.9734 145.238 42.8823C145.753 43.7912 146.014 44.8218 145.995 45.8662C143.4 45.9855 140.674 46.0166 137.91 46.022L137.257 44.4233L136.871 46.0232C136.029 46.0231 135.185 46.022 134.34 46.0198C134.306 44.9783 134.545 43.946 135.035 43.0261C135.524 42.1062 136.247 41.3309 137.13 40.7777Z" fill="#2F2E41"/>
<path d="M136.235 142H134.155L133.784 140.037L132.833 142H127.317C127.052 142 126.795 141.916 126.582 141.759C126.369 141.602 126.211 141.381 126.133 141.129C126.054 140.877 126.058 140.606 126.144 140.356C126.231 140.106 126.394 139.89 126.612 139.74L131.017 136.698V134.713L135.65 134.989L136.235 142Z" fill="#2F2E41"/>
<path d="M154.564 142H152.485L152.113 140.037L151.163 142H145.646C145.382 142 145.125 141.916 144.912 141.759C144.699 141.602 144.541 141.381 144.463 141.129C144.384 140.877 144.388 140.606 144.474 140.356C144.56 140.106 144.724 139.89 144.942 139.74L149.347 136.698V134.713L153.98 134.989L154.564 142Z" fill="#2F2E41"/>
<path d="M149.451 84.3871C149.709 80.8415 149.444 77.2773 148.662 73.8092C147.676 69.4323 146.423 63.8631 146.399 63.7191C146.399 63.7163 146.398 63.7134 146.398 63.7106L146.017 55.5527C146.015 55.529 146.005 55.5066 145.989 55.49C145.972 55.4734 145.949 55.4637 145.926 55.4629L143.284 55.3741C143.26 55.3733 143.237 55.363 143.22 55.3454C143.203 55.3278 143.193 55.3043 143.193 55.2799C143.193 55.0831 143.154 54.8883 143.079 54.7065C143.004 54.5247 142.893 54.3595 142.754 54.2204C142.615 54.0812 142.45 53.9709 142.268 53.8956C142.086 53.8203 141.891 53.7815 141.695 53.7815H136.419C136.077 53.7816 135.747 53.9065 135.491 54.1326C135.235 54.3587 135.07 54.6705 135.028 55.0095C135.025 55.0329 135.014 55.0545 134.997 55.07C134.979 55.0856 134.956 55.0939 134.933 55.0934L132.88 55.0244C132.859 55.0237 132.839 55.0297 132.822 55.0416C132.805 55.0536 132.793 55.0706 132.787 55.0903L132.644 55.5439C130.572 62.2172 129.996 69.2654 130.959 76.1864C131.207 78.0282 131.095 80.7975 131.001 82.3403C130.991 82.4911 131.012 82.6423 131.061 82.7852C131.111 82.928 131.188 83.0597 131.288 83.1727C131.388 83.2857 131.51 83.3778 131.646 83.4436C131.782 83.5094 131.93 83.5478 132.081 83.5564C135.897 83.7759 146.702 89.004 149.289 86.508C149.296 86.5019 149.365 85.5812 149.451 84.3871Z" fill="#3F3D56"/>
<path d="M128.287 53.8098C128.317 53.9399 128.336 54.0722 128.345 54.2054L138.706 60.1823L141.224 58.7326L143.909 62.2471L139.7 65.2468C139.36 65.4892 138.95 65.6147 138.533 65.6045C138.116 65.5943 137.713 65.449 137.385 65.1904L126.701 56.7622C126.219 56.9406 125.694 56.9681 125.196 56.8409C124.697 56.7137 124.25 56.4378 123.912 56.05C123.575 55.6622 123.363 55.1808 123.306 54.6699C123.249 54.159 123.348 53.6428 123.592 53.1899C123.835 52.737 124.21 52.3688 124.668 52.1345C125.126 51.9002 125.644 51.8107 126.153 51.878C126.663 51.9453 127.14 52.1662 127.521 52.5113C127.903 52.8563 128.17 53.3093 128.287 53.8098Z" fill="#FFB6B6"/>
<path d="M138.85 59.5224C138.882 59.37 138.948 59.2264 139.041 59.1015C139.135 58.9766 139.254 58.8733 139.391 58.7987L144.174 56.1926C144.811 55.712 145.613 55.5036 146.403 55.6131C147.194 55.7226 147.909 56.1411 148.391 56.7767C148.873 57.4124 149.084 58.2133 148.977 59.004C148.869 59.7947 148.453 60.5106 147.819 60.9947L143.985 64.8893C143.875 65.0004 143.743 65.0867 143.597 65.1422C143.452 65.1976 143.296 65.2211 143.14 65.2108C142.984 65.2006 142.833 65.1569 142.696 65.0828C142.558 65.0087 142.439 64.9059 142.345 64.7814L139.044 60.4051C138.95 60.2807 138.884 60.1373 138.85 59.985C138.817 59.8327 138.817 59.6749 138.85 59.5224Z" fill="#3F3D56"/>
<path d="M12.088 125.896C18.764 125.896 24.1759 120.484 24.1759 113.808C24.1759 107.133 18.764 101.721 12.088 101.721C5.41197 101.721 0 107.133 0 113.808C0 120.484 5.41197 125.896 12.088 125.896Z" fill="#F0F0F0"/>
<path d="M118.906 71.8637L31.3063 112.08C30.0594 112.651 28.637 112.704 27.3512 112.227C26.0654 111.751 25.0211 110.784 24.4475 109.538L2.83008 62.4557C2.25932 61.2089 2.20646 59.7866 2.68311 58.5008C3.15976 57.215 4.12698 56.1708 5.37259 55.5972L92.9722 15.3805C94.2192 14.8097 95.6415 14.7569 96.9274 15.2335C98.2132 15.7101 99.2574 16.6773 99.831 17.9228L121.449 65.0052C122.019 66.252 122.072 67.6744 121.596 68.9601C121.119 70.2459 120.152 71.2901 118.906 71.8637Z" fill="white"/>
<path d="M6.82961 58.7707C6.42495 58.957 6.11074 59.2962 5.95589 59.7139C5.80105 60.1316 5.81822 60.5937 6.00364 60.9987L27.6211 108.081C27.8074 108.486 28.1467 108.8 28.5644 108.955C28.9821 109.11 29.4442 109.092 29.8493 108.907L117.449 68.6902C117.854 68.5039 118.168 68.1647 118.323 67.747C118.478 67.3293 118.46 66.8672 118.275 66.4622L96.6575 19.3798C96.4711 18.9752 96.1319 18.661 95.7142 18.5061C95.2965 18.3513 94.8344 18.3685 94.4293 18.5539L6.82961 58.7707Z" fill="#E4E4E4"/>
<path d="M118.906 71.8637L31.3063 112.08C30.0594 112.651 28.637 112.704 27.3512 112.227C26.0654 111.751 25.0211 110.784 24.4475 109.538L2.83008 62.4557C2.25932 61.2089 2.20646 59.7866 2.68311 58.5008C3.15976 57.215 4.12698 56.1708 5.37259 55.5972L92.9722 15.3805C94.2192 14.8097 95.6415 14.7569 96.9274 15.2335C98.2132 15.7101 99.2574 16.6773 99.831 17.9228L121.449 65.0052C122.019 66.252 122.072 67.6744 121.596 68.9601C121.119 70.2459 120.152 71.2901 118.906 71.8637ZM5.59672 56.0855C4.48049 56.5995 3.61372 57.5352 3.18659 58.6874C2.75945 59.8396 2.80683 61.1142 3.31832 62.2316L24.9358 109.314C25.4498 110.43 26.3856 111.297 27.5379 111.724C28.6901 112.151 29.9648 112.104 31.0822 111.592L118.682 71.3754C119.798 70.8615 120.665 69.9257 121.092 68.7735C121.519 67.6213 121.472 66.3467 120.96 65.2293L99.3428 18.147C98.8288 17.0308 97.893 16.1641 96.7407 15.737C95.5885 15.3099 94.3138 15.3572 93.1964 15.8687L5.59672 56.0855Z" fill="#CACACA"/>
<path d="M97.017 50.4984L27.4243 82.4483C26.8638 82.7046 26.2378 82.7817 25.6318 82.6691C25.0258 82.5565 24.4694 82.2596 24.0384 81.819L3.67697 60.9393C3.34304 60.5969 3.09619 60.1793 2.95719 59.7216C2.81819 59.264 2.7911 58.7796 2.87818 58.3093C2.96527 57.839 3.16399 57.3965 3.45765 57.019C3.75131 56.6414 4.13131 56.3399 4.56572 56.1397L93.7529 15.0279C94.1816 14.8304 94.6511 14.7373 95.1228 14.7562C95.5945 14.775 96.055 14.9054 96.4666 15.1365C96.8782 15.3677 97.2291 15.693 97.4907 16.0859C97.7524 16.4789 97.9172 16.9282 97.9717 17.397L97.9836 17.3967L98.7573 47.707C98.7727 48.2916 98.6159 48.8678 98.3065 49.3641C97.9971 49.8604 97.5487 50.2548 97.017 50.4984ZM93.9809 15.5144L4.79054 56.6276C4.43424 56.7918 4.12256 57.0391 3.88171 57.3487C3.64085 57.6584 3.47786 58.0214 3.40643 58.4071C3.335 58.7928 3.35722 59.1901 3.47123 59.5654C3.58523 59.9408 3.78769 60.2833 4.06157 60.5642L24.4229 81.4439C24.7764 81.8053 25.2329 82.0488 25.7299 82.1412C26.227 82.2336 26.7404 82.1703 27.2002 81.96L96.7928 50.0102C97.2289 49.8104 97.5967 49.4869 97.8505 49.0798C98.1042 48.6728 98.2328 48.2001 98.2202 47.7206L97.4534 17.679C97.443 17.2736 97.3322 16.8771 97.1309 16.5251C96.9296 16.1731 96.644 15.8765 96.2999 15.662C95.9557 15.4474 95.5637 15.3217 95.159 15.2959C94.7542 15.2702 94.3494 15.3452 93.9809 15.5144Z" fill="#CACACA"/>
<path d="M53.3761 93.721L31.6939 103.675C31.5366 103.748 31.3665 103.788 31.1934 103.795C31.0204 103.802 30.8477 103.774 30.6852 103.714C30.5228 103.654 30.3738 103.562 30.2468 103.445C30.1198 103.327 30.0172 103.185 29.9449 103.028C29.8726 102.871 29.8321 102.7 29.8256 102.527C29.8191 102.354 29.8468 102.182 29.9071 102.019C29.9674 101.857 30.0591 101.708 30.1769 101.581C30.2948 101.454 30.4365 101.352 30.594 101.28L52.2762 91.3254C52.5938 91.1799 52.9562 91.1665 53.2837 91.2881C53.6112 91.4097 53.8771 91.6563 54.0229 91.9738C54.1686 92.2913 54.1824 92.6536 54.0611 92.9812C53.9399 93.3089 53.6935 93.5749 53.3761 93.721Z" fill="white"/>
<path d="M69.2383 62.9561C69.6105 63.7647 69.8197 64.6387 69.8539 65.5282C69.8881 66.4177 69.7467 67.3053 69.4376 68.1401C69.1286 68.9749 68.6581 69.7406 68.0529 70.3935C67.4478 71.0464 66.7199 71.5736 65.9109 71.945C65.1019 72.3164 64.2276 72.5248 63.338 72.5581C62.4484 72.5915 61.561 72.4492 60.7264 72.1394C59.8919 71.8296 59.1266 71.3583 58.4743 70.7526C57.8219 70.1469 57.2954 69.4185 56.9247 68.6092" fill="#CACACA"/>
<path d="M118.125 135.903H21.7337C20.3624 135.902 19.0477 135.356 18.078 134.387C17.1083 133.417 16.5629 132.103 16.5613 130.731V78.9237C16.5629 77.5525 17.1084 76.2378 18.078 75.2682C19.0477 74.2986 20.3624 73.7531 21.7337 73.7516H118.125C119.496 73.7531 120.811 74.2986 121.781 75.2682C122.75 76.2378 123.296 77.5525 123.297 78.9237V130.731C123.296 132.103 122.75 133.417 121.781 134.387C120.811 135.356 119.496 135.902 118.125 135.903Z" fill="white"/>
<path d="M21.7337 77.2435C21.2883 77.244 20.8611 77.4212 20.5461 77.7362C20.2311 78.0512 20.0539 78.4783 20.0534 78.9238V130.731C20.0539 131.177 20.2311 131.604 20.5461 131.919C20.8611 132.234 21.2883 132.411 21.7337 132.412H118.125C118.57 132.411 118.997 132.234 119.312 131.919C119.627 131.604 119.805 131.177 119.805 130.731V78.9238C119.805 78.4783 119.627 78.0512 119.312 77.7362C118.997 77.4212 118.57 77.244 118.125 77.2435H21.7337Z" fill="#FF0651"/>
<path d="M118.125 135.903H21.7337C20.3624 135.902 19.0477 135.356 18.078 134.387C17.1083 133.417 16.5629 132.103 16.5613 130.731V78.9237C16.5629 77.5525 17.1084 76.2378 18.078 75.2682C19.0477 74.2986 20.3624 73.7531 21.7337 73.7516H118.125C119.496 73.7531 120.811 74.2986 121.781 75.2682C122.75 76.2378 123.296 77.5525 123.297 78.9237V130.731C123.296 132.103 122.75 133.417 121.781 134.387C120.811 135.356 119.496 135.902 118.125 135.903ZM21.7337 74.2888C20.5049 74.2902 19.3267 74.779 18.4577 75.6479C17.5888 76.5168 17.1 77.6949 17.0986 78.9237V130.731C17.1 131.96 17.5888 133.138 18.4577 134.007C19.3267 134.876 20.5049 135.365 21.7337 135.366H118.125C119.354 135.365 120.532 134.876 121.401 134.007C122.27 133.138 122.759 131.96 122.76 130.731V78.9237C122.759 77.6949 122.27 76.5168 121.401 75.6479C120.532 74.779 119.354 74.2902 118.125 74.2888H21.7337Z" fill="#3F3D56"/>
<path d="M107.147 107.354H30.5703C29.9539 107.353 29.3528 107.162 28.8491 106.807C28.3454 106.452 27.9635 105.95 27.7557 105.37L17.9637 77.899C17.8031 77.4485 17.7531 76.966 17.8177 76.4921C17.8824 76.0181 18.0598 75.5667 18.3352 75.1756C18.6106 74.7845 18.9758 74.4653 19.4003 74.2447C19.8247 74.0241 20.2958 73.9086 20.7742 73.9079L118.981 73.757C119.453 73.7563 119.919 73.8676 120.34 74.0815C120.761 74.2955 121.125 74.6061 121.402 74.9878C121.68 75.3696 121.863 75.8117 121.937 76.278C122.011 76.7442 121.973 77.2213 121.827 77.6701L121.838 77.6749L109.894 105.543C109.664 106.081 109.281 106.539 108.792 106.861C108.304 107.183 107.732 107.355 107.147 107.354ZM118.986 74.2942L20.7749 74.4451C20.3826 74.4457 19.9961 74.5404 19.648 74.7213C19.2999 74.9022 19.0004 75.1641 18.7745 75.4848C18.5486 75.8056 18.4031 76.1759 18.35 76.5646C18.297 76.9533 18.3381 77.349 18.4698 77.7185L28.2617 105.189C28.4322 105.665 28.7453 106.077 29.1585 106.368C29.5717 106.659 30.0647 106.816 30.5703 106.817H107.147C107.627 106.817 108.096 106.677 108.497 106.413C108.897 106.149 109.211 105.773 109.4 105.332L121.238 77.7101C121.398 77.3374 121.463 76.9308 121.427 76.5269C121.391 76.123 121.255 75.7343 121.032 75.3958C120.808 75.0572 120.505 74.7794 120.147 74.5871C119.79 74.3949 119.391 74.2942 118.986 74.2942Z" fill="#3F3D56"/>
<path d="M49.4514 128.427H25.5932C25.2436 128.427 24.9083 128.288 24.6611 128.041C24.4139 127.793 24.2751 127.458 24.2751 127.109C24.2751 126.759 24.4139 126.424 24.6611 126.177C24.9083 125.929 25.2436 125.791 25.5932 125.791H49.4514C49.801 125.791 50.1362 125.929 50.3834 126.177C50.6306 126.424 50.7695 126.759 50.7695 127.109C50.7695 127.458 50.6306 127.793 50.3834 128.041C50.1362 128.288 49.801 128.427 49.4514 128.427Z" fill="white"/>
<path d="M76.704 107.086C76.704 108.882 75.9903 110.605 74.7198 111.876C73.4492 113.146 71.7261 113.86 69.9293 113.86C68.1325 113.86 66.4094 113.146 65.1389 111.876C63.8684 110.605 63.1546 108.882 63.1546 107.086" fill="#3F3D56"/>
<path d="M33.8463 29.1965C35.1815 29.1965 36.2639 28.1142 36.2639 26.7791C36.2639 25.4439 35.1815 24.3616 33.8463 24.3616C32.5111 24.3616 31.4287 25.4439 31.4287 26.7791C31.4287 28.1142 32.5111 29.1965 33.8463 29.1965Z" fill="#F0F0F0"/>
<path d="M2.41759 87.2161C3.75279 87.2161 4.83519 86.1337 4.83519 84.7986C4.83519 83.4634 3.75279 82.3811 2.41759 82.3811C1.08239 82.3811 0 83.4634 0 84.7986C0 86.1337 1.08239 87.2161 2.41759 87.2161Z" fill="#F0F0F0"/>
<path d="M123.297 41.8212C124.632 41.8212 125.715 40.7388 125.715 39.4037C125.715 38.0685 124.632 36.9862 123.297 36.9862C121.962 36.9862 120.88 38.0685 120.88 39.4037C120.88 40.7388 121.962 41.8212 123.297 41.8212Z" fill="#F0F0F0"/>
<path d="M164.68 142H118.667C118.582 142 118.501 141.966 118.441 141.906C118.381 141.846 118.347 141.765 118.347 141.68C118.347 141.595 118.381 141.514 118.441 141.454C118.501 141.394 118.582 141.36 118.667 141.36H164.68C164.765 141.361 164.846 141.394 164.906 141.454C164.966 141.514 164.999 141.596 164.999 141.68C164.999 141.765 164.966 141.846 164.906 141.906C164.846 141.966 164.765 142 164.68 142Z" fill="#CACACA"/>
</g>
<defs>
<clipPath id="clip0_411_327">
<rect width="165" height="142" fill="white"/>
</clipPath>
</defs>
</svg>
