<svg width="25" height="25" viewBox="0 0 25 25" fill="none" xmlns="http://www.w3.org/2000/svg">
<path d="M20.8333 21.875C20.8333 20.4212 20.8333 19.6945 20.654 19.103C20.25 17.7714 19.2078 16.7292 17.8761 16.3252C17.2847 16.1458 16.5579 16.1458 15.1042 16.1458H9.89584C8.44213 16.1458 7.71526 16.1458 7.12382 16.3252C5.79214 16.7292 4.75005 17.7714 4.34609 19.103C4.16667 19.6945 4.16667 20.4212 4.16667 21.875M17.1875 7.8125C17.1875 10.4013 15.0889 12.5 12.5 12.5C9.91117 12.5 7.8125 10.4013 7.8125 7.8125C7.8125 5.22367 9.91117 3.125 12.5 3.125C15.0889 3.125 17.1875 5.22367 17.1875 7.8125Z" stroke="#9A9A9A" stroke-width="2.83333" stroke-linecap="round" stroke-linejoin="round"/>
</svg>
