<svg width="229" height="134" viewBox="0 0 229 134" fill="none" xmlns="http://www.w3.org/2000/svg">
<g clip-path="url(#clip0_411_174)">
<path d="M119.93 50.63C121.452 48.7067 123.68 47.9312 124.906 48.8976C126.133 49.8641 125.893 52.2063 124.371 54.13C123.773 54.9068 122.998 55.5295 122.11 55.946L115.56 64.0138L111.831 60.8659L118.684 53.2467C118.884 52.2877 119.311 51.3904 119.93 50.63Z" fill="#FFB6B6"/>
<path d="M95.793 47.1783L105.35 63.3851L116.92 55.41L121.573 57.2625C121.573 57.2625 113.352 75.1192 106.262 73.9578C99.1732 72.7963 85.0674 56.8176 86.6866 51.2376C88.3058 45.6576 95.793 47.1783 95.793 47.1783Z" fill="#FF0651"/>
<path d="M124.601 42.1841L119.261 43.7578L122.941 56.1918L128.281 54.6181L124.601 42.1841Z" fill="#FF0651"/>
<path d="M94.5934 47.5819L94.7076 39.982L90.011 37.0605L84.904 43.2942L94.5934 47.5819Z" fill="#FFB6B6"/>
<path opacity="0.1" d="M94.5934 47.5819L94.8974 40.1714L90.011 37.0605L91.6712 46.2314L94.5934 47.5819Z" fill="black"/>
<path d="M92.0782 40.7393C96.6913 40.7393 100.431 37.0076 100.431 32.4043C100.431 27.801 96.6913 24.0693 92.0782 24.0693C87.4652 24.0693 83.7255 27.801 83.7255 32.4043C83.7255 37.0076 87.4652 40.7393 92.0782 40.7393Z" fill="#FFB6B6"/>
<path d="M106 97.836L104.528 107.819L103.788 112.846L100.707 133.765C96.8202 133.643 92.9835 133.468 89.2051 133.249L89.7539 120.511L90.0854 112.846L90.3028 107.819L90.438 104.654L88.4573 97.1058C88.4573 97.1058 87.8051 95.8966 87.1422 94.2852C87.0255 93.9995 86.9062 93.7005 86.7922 93.3936C85.9702 91.2001 85.3179 88.5886 86.1373 87.2234C86.177 87.1599 86.2168 87.099 86.2619 87.0408C86.6331 86.5619 87.5956 86.2047 88.9028 85.9401C89.7009 85.7761 90.6316 85.6491 91.6339 85.5512C94.6672 85.2522 98.3714 85.2072 101.206 85.2363C103.77 85.2575 105.621 85.3368 105.621 85.3368L105.647 86.1809L105.65 86.2629L105.668 86.9032L105.713 88.4325L105.827 92.2109L105.944 96.0501L106 97.836Z" fill="#2F2E41"/>
<path d="M105.944 96.05L101.816 104.313L99.204 107.819L95.4627 112.846L89.7539 120.511L80.7017 132.669C76.3479 132.33 72.0789 131.926 67.9134 131.465L78.9941 112.846L81.985 107.819L84.8725 102.969L86.7073 95.3832C86.7073 95.3832 86.7073 94.9784 86.7365 94.3302C86.7498 94.0576 86.7683 93.7401 86.7922 93.3935C86.9539 91.0784 87.4445 87.3874 88.9028 85.9401C89.099 85.7416 89.3138 85.5882 89.5471 85.4823C89.9846 85.2865 90.7138 85.3342 91.6339 85.5511C93.9089 86.0935 97.3452 87.6916 100.432 89.2792C102.566 90.3799 104.531 91.4726 105.827 92.2108L105.944 96.05Z" fill="#2F2E41"/>
<path d="M85.9778 41.6863L95.4668 46.2313C95.4668 46.2313 105.525 75.9632 105.525 77.4782C105.525 78.9932 108.372 79.9401 106.664 81.6445C104.956 83.3489 109.843 84.7923 107.209 86.1537C104.576 87.5151 88.1491 94.9619 86.3225 94.2904C81.2846 92.4382 86.536 85.6326 86.536 85.6326C86.536 85.6326 82.7516 82.5914 83.3209 81.0764C83.8903 79.5614 79.9049 50.5869 79.9049 50.5869L85.9778 41.6863Z" fill="#FF0651"/>
<path d="M92.7811 34.3415L94.8775 35.512C94.8775 35.512 93.5918 31.7176 94.5302 30.044C95.4686 28.3705 94.9216 27.186 94.9216 27.186C94.9216 27.186 98.2688 28.2858 99.1504 26.9101C100.032 25.5344 100.323 24.8182 97.4523 23.6546C94.5812 22.491 95.6614 23.3139 95.6614 23.3139C95.6614 23.3139 93.2096 22.3844 93.7496 22.7958C94.2897 23.2072 91.7171 22.1004 92.0795 22.6324C92.4419 23.1644 90.4663 22.1711 90.8286 22.7031C91.191 23.2351 86.2514 23.9931 87.2677 24.3408C88.2839 24.6884 83.1028 25.0918 83.2584 29.1343C83.4141 33.1768 80.5927 34.3235 82.6747 35.4984C84.7567 36.6734 87.6627 41.7022 87.6627 41.7022L90.1134 40.0398C90.1134 40.0398 89.3769 33.5395 92.7811 34.3415Z" fill="#2F2E41"/>
<path d="M74.9872 77.6543C77.4224 77.3395 79.2336 75.8305 79.0326 74.284C78.8316 72.7376 76.6947 71.7395 74.2586 72.0547C73.2838 72.1673 72.3502 72.5112 71.5358 73.0577L61.2346 74.5215L62.026 79.3307L72.0972 77.3771C73.0245 77.6985 74.0155 77.7935 74.9872 77.6543Z" fill="#A0616A"/>
<path d="M43.4948 56.5509L46.3203 77.5403C46.3203 77.5403 47.0975 82.0545 54.1722 81.3898C61.2468 80.7251 70.544 77.9872 70.544 77.9872L69.939 73.0859L62.0372 73.9401C62.0372 73.9401 58.3486 73.0472 57.6163 73.6494C56.8841 74.2516 57.2204 74.9566 56.4962 74.0797C55.772 73.2029 56.1357 72.6584 55.5016 73.4253C54.8676 74.1921 54.7388 75.525 54.359 73.8741C53.9793 72.2232 53.2728 72.5589 53.2728 72.5589L52.8708 57.1838C52.8708 57.1838 50.7482 49.8496 46.8713 52.3017C42.9943 54.7539 43.4948 56.5509 43.4948 56.5509Z" fill="#E6E6E6"/>
<path d="M55.879 39.8047H41.8853V60.4381H55.879V39.8047Z" fill="#2F2E41"/>
<path d="M45.0264 54.1467L45.5165 48.2369H52.0326L53.4771 54.4982L45.0264 54.1467Z" fill="#A0616A"/>
<path opacity="0.1" d="M45.0264 54.1467L45.5165 48.2369H52.0326L53.4771 54.4982L45.0264 54.1467Z" fill="black"/>
<path d="M56.8313 44.1482C57.4615 40.2735 54.8245 36.6227 50.9416 35.9939C47.0586 35.3651 43.4 37.9965 42.7699 41.8712C42.1398 45.7459 44.7768 49.3967 48.6597 50.0255C52.5427 50.6542 56.2012 48.0229 56.8313 44.1482Z" fill="#A0616A"/>
<path d="M51.5973 35.532C51.5973 35.532 51.5973 32.6142 48.8821 33.2394C46.1669 33.8647 45.3315 34.9068 45.3315 34.9068C45.3315 34.9068 44.2872 36.5741 42.6163 36.7826C40.9454 36.991 39.4833 41.7846 39.6922 42.8267C39.9011 43.8688 40.9454 46.5782 39.4834 47.8287C38.0213 49.0792 35.9327 50.955 36.5593 52.8307C37.1859 54.7065 39.0656 59.5001 39.0656 59.5001C39.0656 59.5001 33.8227 60.2649 34.2511 63.5298C34.2511 63.5298 36.7682 61.5843 40.1099 61.5843C43.4517 61.5843 43.034 55.5344 43.034 55.5344C43.034 55.5344 43.2429 51.7886 43.8694 50.7466C44.496 49.7045 43.6606 43.8688 46.7935 40.7425C49.9264 37.6162 51.5973 35.532 51.5973 35.532Z" fill="#2F2E41"/>
<path d="M50.7619 34.9069C50.7619 34.9069 54.7303 35.7405 56.1923 39.7005C57.6543 43.6604 56.9159 44.3973 56.9159 44.3973C56.9159 44.3973 57.2392 46.7818 59.0132 47.6179C60.7872 48.454 59.3252 51.9971 59.3252 51.9971C59.3252 51.9971 59.7429 55.5403 65.3822 56.7908C71.0215 58.0413 58.3105 67.6308 58.3105 67.6308C58.3105 67.6308 59.2243 63.1048 53.3762 62.8964C47.5281 62.688 54.5214 51.9971 54.5214 51.9971L55.148 45.1193C55.148 45.1193 53.8948 37.1995 50.1353 36.1574C46.3758 35.1153 50.7619 34.9069 50.7619 34.9069Z" fill="#2F2E41"/>
<path d="M60.8736 98.0266L59.4312 107.819L58.6914 112.846L57.4372 121.35L56.1671 129.968C54.6637 129.751 53.1789 129.526 51.7126 129.293C49.1937 128.894 46.7277 128.473 44.3148 128.028L44.7842 117.093L44.9671 112.846L45.1846 107.819L45.3118 104.842L43.3285 97.2936C43.3285 97.2936 39.2372 89.692 41.1357 87.2313C41.2232 87.1202 41.3399 87.0144 41.4883 86.9165C41.9709 86.591 42.7664 86.3317 43.766 86.1307C46.1285 85.6491 49.6285 85.4745 52.8183 85.4295C56.9122 85.3713 60.4918 85.5274 60.4918 85.5274L60.513 86.1492L60.5528 87.4986L60.8736 98.0266Z" fill="#2F2E41"/>
<path d="M60.8736 98.0265L59.4312 107.819L58.6914 112.846L57.4372 121.35L51.7126 129.293C49.1937 128.893 46.7277 128.473 44.3148 128.028C42.541 127.703 40.7989 127.364 39.0834 127.015L44.7842 117.093L47.2236 112.846L50.1084 107.819L51.4952 105.406L52.7016 103.305L53.5846 99.3891L54.2634 96.386L54.4198 95.6928C54.4198 95.6928 54.4039 94.6027 54.5073 93.1395C54.6664 90.9223 55.1039 87.8424 56.3077 86.3951C56.541 86.1094 56.8062 85.8898 57.1058 85.7496C57.7316 85.4558 58.9672 85.6569 60.513 86.1491L60.5528 87.4985L60.8736 98.0265Z" fill="#2F2E41"/>
<path d="M53.9455 54.1851L53.7717 54.1361L45.2157 51.7233L38.3837 61.0027L42.9384 80.3189L41.2304 88.0833C41.2304 88.0833 55.0842 84.4852 60.5878 87.5152C60.5878 87.5152 60.9673 85.7885 60.5878 84.9474C60.2082 84.1064 59.6389 80.6067 60.2082 79.0425C60.7776 77.4783 59.0696 70.0927 59.0696 70.0927C59.0696 70.0927 59.6389 65.1689 57.1718 62.707C54.7047 60.2451 53.9455 54.1851 53.9455 54.1851Z" fill="#E6E6E6"/>
<path d="M51.5707 105.714C52.1842 108.087 53.9083 109.694 55.4214 109.304C56.9346 108.914 57.6634 106.675 57.0494 104.302C56.8171 103.35 56.3599 102.468 55.716 101.729L52.9893 91.7089L48.3044 93.0859L51.4898 102.818C51.2846 103.776 51.3123 104.769 51.5707 105.714Z" fill="#A0616A"/>
<path d="M52.8131 62.7139C52.8131 62.7139 50.1595 55.5581 47.2512 56.024C44.3428 56.4899 41.6913 60.9879 41.6913 60.9879L43.7937 86.4431L49.5686 100.969L55.6943 98.5595L52.5124 84.0422L52.8131 62.7139Z" fill="#E6E6E6"/>
<path opacity="0.7" d="M185.487 18.5203V128.227C185.4 128.245 185.312 128.261 185.222 128.274C183.878 128.518 182.515 128.751 181.136 128.978C179.497 129.248 177.835 129.51 176.151 129.761C174.751 129.968 173.338 130.169 171.909 130.362C167.748 130.931 163.472 131.436 159.091 131.875C157.689 132.018 156.273 132.153 154.849 132.28C142.4 133.397 129.169 134 115.45 134C113.506 134 111.576 133.987 109.654 133.963C109.563 133.963 109.476 133.963 109.388 133.96V18.5203H185.487Z" fill="#F2F2F2"/>
<path d="M185.222 54.7133V55.0387L185.256 54.9699C185.254 54.8853 185.24 54.8006 185.222 54.7133ZM109.388 89.2792L109.123 89.0648V112.846H109.388V133.96C109.476 133.963 109.563 133.963 109.654 133.963V73.2398C109.566 73.2874 109.479 73.3324 109.388 73.3774V89.2792ZM109.123 18.2556V133.955C109.211 133.958 109.298 133.96 109.388 133.96C109.476 133.963 109.563 133.963 109.654 133.963V18.7848H185.222V128.274C185.312 128.261 185.4 128.245 185.487 128.227C185.575 128.213 185.665 128.198 185.752 128.179V18.2556H109.123Z" fill="#3F3D56"/>
<path d="M115.884 101.47C118.666 101.47 120.922 99.2193 120.922 96.4428C120.922 93.6664 118.666 91.4156 115.884 91.4156C113.101 91.4156 110.846 93.6664 110.846 96.4428C110.846 99.2193 113.101 101.47 115.884 101.47Z" fill="#3F3D56"/>
<path d="M115.232 95.0499C117.04 96.7075 119.363 97.12 120.42 95.9713C121.477 94.8227 120.868 92.5482 119.058 90.8903C118.345 90.2181 117.48 89.7262 116.537 89.4558L108.786 82.5291L105.606 86.2281L113.585 92.664C113.935 93.5791 114.5 94.3972 115.232 95.0499Z" fill="#FFB6B6"/>
<path d="M92.8281 58.2973C92.8281 58.2973 86.6999 53.7342 84.5138 55.7041C82.3277 57.674 82.5555 62.8876 82.5555 62.8876L98.1991 83.1036L110.965 92.1561L114.79 86.8083L104.205 76.3554L92.8281 58.2973Z" fill="#FF0651"/>
<path d="M159.091 103.85V131.875C157.689 132.018 156.273 132.153 154.849 132.28V103.85H159.091Z" fill="#3F3D56"/>
<path d="M4.24243 103.85V116.577C2.76022 115.923 1.34431 115.251 0 114.566V103.85H4.24243Z" fill="#3F3D56"/>
<path d="M157.499 107.819H2.91544V112.847H157.499V107.819Z" fill="#FF0651"/>
<path d="M191.753 33.5155C191.753 33.5155 188.925 35.1706 189.852 36.8075C190.78 38.4443 192.073 40.6738 191.196 41.376C190.319 42.0782 188.87 45.1741 188.87 45.1741C188.87 45.1741 182.688 44.3125 183.269 49.1044C183.849 53.8964 186.753 54.5497 184.264 56.6578C181.775 58.7659 186.851 61.2872 186.851 61.2872C186.851 61.2872 190.356 60.1974 191.155 56.8462C191.955 53.495 190.442 59.4087 190.95 59.8327C191.457 60.2567 193.426 63.0516 194.82 59.3356C196.213 55.6196 194.833 54.1789 196.675 51.9857C198.516 49.7926 199.768 46.2453 199.713 45.6253C199.658 45.0052 201.819 39.3468 198.493 37.1401C195.166 34.9334 191.753 33.5155 191.753 33.5155Z" fill="#2F2E41"/>
<path d="M167.746 85.7731C166.328 87.3672 164.355 87.9294 163.338 87.0288C162.322 86.1282 162.647 84.1062 164.066 82.5117C164.624 81.8669 165.328 81.3649 166.12 81.0476L172.213 74.3688L175.293 77.2888L168.96 83.5629C168.738 84.3858 168.322 85.1437 167.746 85.7731Z" fill="#FFB6B6"/>
<path d="M185.563 54.3491C185.563 54.3491 189.259 50.9617 190.818 52.102C192.377 53.2424 192.577 56.6613 192.577 56.6613L183.717 70.9019L170.939 81.6495L168.084 78.4132L179.345 66.8966L185.563 54.3491Z" fill="#3F3D56"/>
<path d="M193.052 46.6742L191.05 53.7744H202.037L198.42 45.0259L193.052 46.6742Z" fill="#FFB6B6"/>
<path opacity="0.1" d="M193.052 46.6742L191.05 53.7744H202.037L198.42 45.0259L193.052 46.6742Z" fill="black"/>
<path d="M198.623 70.105L205.066 85.2921L183.263 84.2176L184.745 70.105H198.623Z" fill="#FFB6B6"/>
<path d="M192.321 50.139L201.412 49.761L207.473 60.3447L202.17 77.3542L183.609 79.2442L185.619 62.84L186.639 53.5409L192.321 50.139Z" fill="#3F3D56"/>
<path d="M207.473 99.54C207.036 101.654 206.561 104.551 206.097 107.692C205.856 109.327 205.617 111.028 205.389 112.719C204.801 117.056 204.276 121.324 203.928 124.229C201.044 124.975 198.045 125.687 194.94 126.359L193.336 112.719L192.744 107.692L192.132 102.49L191.856 107.692L191.588 112.719L190.819 127.216C189.157 127.549 187.468 127.87 185.752 128.179C185.665 128.198 185.575 128.213 185.487 128.227C185.4 128.245 185.312 128.261 185.222 128.274C183.878 128.518 182.515 128.751 181.136 128.978L180.908 112.719L180.836 107.692L180.579 89.4512L182.82 82.0639L183.496 82.0031L185.222 81.847L185.487 81.8231L185.752 81.7967L202.923 80.2409L203.496 80.188C203.496 80.188 203.905 80.9844 204.467 82.31C204.514 82.4211 204.565 82.5375 204.615 82.6566C205.1 83.8208 205.678 85.3316 206.206 87.0382C206.903 89.2819 207.516 91.8643 207.72 94.4334C207.858 96.1771 207.81 97.9128 207.473 99.54Z" fill="#2F2E41"/>
<path d="M208.144 92.6435C207.984 94.769 206.756 96.4096 205.4 96.308C204.045 96.2063 203.076 94.401 203.236 92.2748C203.288 91.4245 203.543 90.5992 203.981 89.8677L204.772 80.8704L208.995 81.3306L207.767 90.1516C208.09 90.9402 208.22 91.7947 208.144 92.6435Z" fill="#FFB6B6"/>
<path d="M203.233 56.8726C203.233 56.8726 204.115 51.9434 206.048 51.9077C207.981 51.872 210.216 54.4705 210.216 54.4705L211.817 71.156L208.179 87.4327L203.943 86.585L205.906 70.6143L203.233 56.8726Z" fill="#3F3D56"/>
<path d="M195.663 48.2171C199.317 48.2171 202.279 45.261 202.279 41.6145C202.279 37.968 199.317 35.012 195.663 35.012C192.008 35.012 189.046 37.968 189.046 41.6145C189.046 45.261 192.008 48.2171 195.663 48.2171Z" fill="#FFB6B6"/>
<path d="M193.126 34.2417C193.126 34.2417 192.023 37.3229 193.788 37.9832C195.552 38.6434 197.978 39.5238 197.758 40.6242C197.537 41.7246 198.42 45.0259 198.42 45.0259C198.42 45.0259 193.126 48.3272 196.655 51.6284C200.184 54.9297 202.831 53.5694 202.279 56.7805C201.728 59.9917 207.242 58.6712 207.242 58.6712C207.242 58.6712 209.227 55.59 207.683 52.5088C206.139 49.4276 208.786 54.9297 209.447 54.9297C210.109 54.9297 213.417 55.8101 212.094 52.0686C210.771 48.3272 208.786 48.1071 208.786 45.246C208.786 42.3849 207.462 38.8635 207.021 38.4233C206.58 37.9832 204.595 32.261 200.625 32.7011C196.655 33.1413 193.126 34.2417 193.126 34.2417Z" fill="#2F2E41"/>
<path d="M163.5 76.6057L158.16 78.1794L161.839 90.6134L167.18 89.0397L163.5 76.6057Z" fill="#FF0651"/>
<path d="M75.9996 66.0221L70.6594 67.5958L74.3392 80.0298L79.6794 78.4561L75.9996 66.0221Z" fill="#FF0651"/>
<path d="M176.151 103.723V129.761C174.751 129.968 173.338 130.169 171.909 130.362V103.723H176.151Z" fill="#3F3D56"/>
<path d="M229 107.692H174.826V112.719H229V107.692Z" fill="#FF0651"/>
<path d="M92.4999 20.2585C96.0261 20.2585 98.8846 17.4061 98.8846 13.8875C98.8846 10.3688 96.0261 7.51636 92.4999 7.51636C88.9738 7.51636 86.1153 10.3688 86.1153 13.8875C86.1153 17.4061 88.9738 20.2585 92.4999 20.2585Z" fill="#E6E6E6"/>
<path d="M199.438 30.3075C202.964 30.3075 205.822 27.4551 205.822 23.9364C205.822 20.4177 202.964 17.5653 199.438 17.5653C195.911 17.5653 193.053 20.4177 193.053 23.9364C193.053 27.4551 195.911 30.3075 199.438 30.3075Z" fill="#E6E6E6"/>
<path d="M94.2463 15.5102C93.9043 15.4925 93.5622 15.4846 93.2202 15.4819C93.4472 14.2075 93.6742 12.9331 93.9012 11.6587C93.9533 11.366 93.8666 11.0693 93.5965 10.9117C93.339 10.7614 93.0062 10.8119 92.7932 11.0151C92.163 11.6166 91.5327 12.2181 90.9024 12.8196C90.6436 13.0666 90.6532 13.5064 90.9024 13.7551C91.1609 14.0131 91.5803 14.0027 91.8398 13.7551C91.9791 13.6221 92.1184 13.4892 92.2577 13.3562L91.8739 15.5111C91.5001 15.5297 91.1265 15.554 90.7536 15.5905C90.3973 15.6255 90.0907 15.8695 90.0907 16.252C90.0907 16.6171 90.3942 16.9055 90.7536 16.9135C91.3044 16.9257 91.8551 16.9379 92.4059 16.9502C92.543 16.9532 92.6939 16.898 92.8157 16.8066C93.2925 16.8021 93.7695 16.8084 94.2463 16.8331C94.6042 16.8516 94.9092 16.5158 94.9092 16.1716C94.9092 15.798 94.6053 15.5287 94.2463 15.5102Z" fill="white"/>
<path d="M143.995 12.7422C147.521 12.7422 150.38 9.88975 150.38 6.37109C150.38 2.85244 147.521 0 143.995 0C140.469 0 137.611 2.85244 137.611 6.37109C137.611 9.88975 140.469 12.7422 143.995 12.7422Z" fill="#FF0651"/>
<path d="M145.742 7.99381C145.4 7.97611 145.058 7.96826 144.715 7.96558C144.942 6.69118 145.169 5.41675 145.396 4.14233C145.449 3.84959 145.362 3.55293 145.092 3.39533C144.834 3.245 144.502 3.2955 144.289 3.49877C143.658 4.10026 143.028 4.70176 142.398 5.30325C142.139 5.5502 142.149 5.99006 142.398 6.23871C142.656 6.49669 143.076 6.48637 143.335 6.23871C143.474 6.10577 143.614 5.97283 143.753 5.83989L143.369 7.99474C142.995 8.01335 142.622 8.03762 142.249 8.07418C141.893 8.10911 141.586 8.35319 141.586 8.73565C141.586 9.10079 141.89 9.38915 142.249 9.39713C142.8 9.40935 143.35 9.42158 143.901 9.43382C144.038 9.43687 144.189 9.38166 144.311 9.29027C144.788 9.28576 145.265 9.29208 145.742 9.31675C146.1 9.33528 146.405 8.99947 146.405 8.65528C146.405 8.28167 146.101 8.01238 145.742 7.99381Z" fill="white"/>
<path d="M50.1391 30.2955C53.6653 30.2955 56.5238 27.4431 56.5238 23.9244C56.5238 20.4058 53.6653 17.5533 50.1391 17.5533C46.613 17.5533 43.7545 20.4058 43.7545 23.9244C43.7545 27.4431 46.613 30.2955 50.1391 30.2955Z" fill="#E6E6E6"/>
<path d="M52.0811 25.7303C51.5323 25.4472 50.933 25.2964 50.3311 25.2752C50.8004 24.5211 51.1239 23.6745 51.2512 22.8013C51.3254 22.2801 51.3334 21.7588 50.9648 21.3381C50.6838 21.0153 50.2781 20.891 49.8671 20.8513C49.533 20.8195 49.1353 20.8407 48.8198 20.9465C48.2656 21.1265 48.0826 21.6027 48.0959 22.1451C48.1092 22.6611 48.1887 23.185 48.536 23.5898C48.7747 23.8676 49.122 24.0502 49.4853 24.0793C49.1512 24.7672 48.6713 25.3758 48.0641 25.8864C47.8122 26.0954 47.8201 26.5161 48.011 26.7543C48.2179 27.0136 48.5705 27.0877 48.8675 26.9236C49.647 26.4897 50.6228 26.4659 51.4129 26.8733C51.7311 27.0374 52.1315 26.9554 52.3197 26.6352C52.4948 26.3389 52.4019 25.8944 52.0811 25.7303ZM49.9758 22.3436C49.9758 22.3859 49.9732 22.4256 49.9679 22.4679C49.9652 22.4918 49.9626 22.5129 49.9626 22.5261C49.9599 22.5394 49.9599 22.55 49.9573 22.5526V22.5553C49.9467 22.6214 49.9307 22.6849 49.9201 22.7484C49.8141 22.7193 49.7027 22.7166 49.594 22.7537C49.5834 22.7563 49.5781 22.7563 49.5701 22.759H49.5622C49.541 22.7431 49.5251 22.7299 49.5675 22.7563C49.5436 22.7299 49.5304 22.714 49.5224 22.7087L49.5038 22.6743C49.5065 22.6849 49.5065 22.6928 49.5065 22.6955C49.5012 22.6875 49.4932 22.6637 49.48 22.6214C49.4667 22.5738 49.4535 22.5235 49.4429 22.4732C49.4269 22.3939 49.4243 22.2907 49.4216 22.1742C49.4323 22.1742 49.4429 22.1716 49.4455 22.1716C49.5224 22.1663 49.5966 22.1637 49.6735 22.1637C49.7239 22.1637 49.7743 22.1689 49.8247 22.1716C49.8379 22.1769 49.9228 22.1954 49.9546 22.2033C49.9599 22.2086 49.9679 22.2139 49.9732 22.2166C49.9785 22.2245 49.9811 22.2298 49.9891 22.2377L49.9758 22.3436Z" fill="white"/>
<path d="M200.328 23.8517C200.773 23.5104 201.126 23.0077 201.089 22.4256C201.02 21.3514 199.964 20.8619 199.031 20.6819C198.678 20.6132 198.315 20.7798 198.214 21.1423C198.127 21.4678 198.326 21.8885 198.678 21.9573C198.83 21.9864 198.981 22.0208 199.132 22.0658C199.209 22.0869 199.286 22.1134 199.36 22.1451C199.381 22.1557 199.458 22.1901 199.471 22.1981C199.532 22.2298 199.596 22.2668 199.654 22.3092C199.659 22.3171 199.691 22.3462 199.712 22.3674C199.665 22.3303 199.755 22.4706 199.755 22.4362C199.76 22.4494 199.763 22.46 199.765 22.4706V22.4944C199.765 22.497 199.75 22.5499 199.755 22.5499C199.712 22.6187 199.697 22.6505 199.67 22.677C199.556 22.804 199.476 22.8516 199.309 22.9309C198.922 23.1188 198.495 23.2194 198.108 23.4152C197.435 23.7591 197.904 24.8307 198.62 24.6243C198.655 24.6164 198.686 24.6058 198.721 24.5979C198.739 24.5952 198.771 24.5899 198.792 24.5899C198.837 24.5899 198.88 24.5899 198.922 24.5926H198.938C199.026 24.6111 199.113 24.6323 199.195 24.6667C199.206 24.6719 199.222 24.6799 199.235 24.6905C199.272 24.7116 199.312 24.7354 199.349 24.7566L199.392 24.7857L199.394 24.7884C199.429 24.8148 199.458 24.8466 199.49 24.8757C199.495 24.881 199.524 24.9154 199.54 24.9312C199.553 24.9498 199.58 24.9842 199.583 24.9895C199.606 25.0291 199.63 25.0715 199.651 25.1138C199.654 25.1218 199.657 25.135 199.659 25.1482C199.665 25.1747 199.673 25.2038 199.681 25.2329C199.678 25.2435 199.683 25.2884 199.683 25.3175C199.683 25.3255 199.683 25.3308 199.686 25.3361C199.678 25.3705 199.667 25.4049 199.659 25.4393C199.657 25.4472 199.657 25.4498 199.657 25.4525C199.633 25.4975 199.606 25.5398 199.583 25.5821C199.58 25.5874 199.575 25.5901 199.572 25.5954V25.598C199.543 25.6271 199.519 25.6536 199.49 25.6827C199.471 25.7012 199.447 25.7197 199.426 25.7382C199.41 25.7462 199.368 25.7779 199.357 25.7832C199.32 25.8018 199.286 25.8229 199.248 25.8414H199.246C199.243 25.8441 199.24 25.8441 199.238 25.8441C199.187 25.86 199.14 25.8732 199.092 25.8864H199.084C199.039 25.8864 198.933 25.8732 198.933 25.8785C198.917 25.8758 198.896 25.8705 198.883 25.8679C198.853 25.852 198.798 25.8229 198.798 25.8229C198.063 25.3837 197.395 26.5294 198.127 26.9659C199.315 27.675 200.932 26.7225 201.006 25.3784C201.041 24.7672 200.76 24.2301 200.328 23.8517Z" fill="white"/>
</g>
<defs>
<clipPath id="clip0_411_174">
<rect width="229" height="134" fill="white"/>
</clipPath>
</defs>
</svg>
