<svg width="9190" height="1858" viewBox="0 0 9190 1858" fill="none" xmlns="http://www.w3.org/2000/svg">
<path d="M2419.23 1611.3H2152L2559.18 432H2880.55L3287.16 1611.3H3019.93L2724.47 701.489H2715.26L2419.23 1611.3ZM2402.53 1147.76H3033.75V1342.39H2402.53V1147.76Z" fill="white"/>
<path d="M3429.12 432H3736.67L4061.49 1224.34H4075.32L4400.14 432H4707.69V1611.3H4465.8V843.719H4456.01L4150.76 1605.54H3986.05L3680.8 840.84H3671.01V1611.3H3429.12V432Z" fill="white"/>
<path d="M4913.15 1611.3V432H5385.41C5472.18 432 5544.56 444.86 5602.54 470.581C5660.51 496.301 5704.09 532.003 5733.27 577.685C5762.45 622.984 5777.04 675.192 5777.04 734.311C5777.04 780.377 5767.83 820.878 5749.4 855.811C5730.97 890.361 5705.63 918.769 5673.38 941.034C5641.51 962.916 5605.03 978.463 5563.95 987.676V999.193C5608.87 1001.11 5650.91 1013.78 5690.08 1037.2C5729.62 1060.61 5761.68 1093.44 5786.26 1135.66C5810.83 1177.51 5823.12 1227.41 5823.12 1285.38C5823.12 1347.95 5807.57 1403.81 5776.47 1452.95C5745.75 1501.7 5700.25 1540.28 5639.97 1568.69C5579.69 1597.1 5505.4 1611.3 5417.09 1611.3H4913.15ZM5162.53 1407.46H5365.83C5435.32 1407.46 5486.01 1394.21 5517.87 1367.72C5549.74 1340.85 5565.68 1305.15 5565.68 1260.62C5565.68 1227.99 5557.81 1199.2 5542.06 1174.25C5526.32 1149.29 5503.86 1129.71 5474.68 1115.51C5445.88 1101.31 5411.52 1094.21 5371.59 1094.21H5162.53V1407.46ZM5162.53 925.487H5347.4C5381.57 925.487 5411.9 919.537 5438.4 907.636C5465.27 895.352 5486.39 878.077 5501.75 855.811C5517.49 833.546 5525.36 806.866 5525.36 775.771C5525.36 733.159 5510.2 698.801 5479.86 672.697C5449.91 646.593 5407.3 633.541 5352.01 633.541H5162.53V925.487Z" fill="white"/>
<path d="M6713.94 432H6963.31V1197.85C6963.31 1283.85 6942.77 1359.09 6901.69 1423.58C6860.99 1488.07 6803.97 1538.36 6730.64 1574.45C6657.3 1610.15 6571.87 1628 6474.35 1628C6376.44 1628 6290.82 1610.15 6217.48 1574.45C6144.15 1538.36 6087.13 1488.07 6046.43 1423.58C6005.73 1359.09 5985.38 1283.85 5985.38 1197.85V432H6234.76V1176.55C6234.76 1221.46 6244.55 1261.39 6264.13 1296.32C6284.1 1331.26 6312.13 1358.7 6348.22 1378.67C6384.31 1398.63 6426.35 1408.61 6474.35 1408.61C6522.73 1408.61 6564.77 1398.63 6600.48 1378.67C6636.57 1358.7 6664.41 1331.26 6683.99 1296.32C6703.95 1261.39 6713.94 1221.46 6713.94 1176.55V432Z" fill="white"/>
<path d="M7168.49 1611.3V432H7417.87V1405.73H7923.53V1611.3H7168.49Z" fill="white"/>
<path d="M8322.07 1611.3H8054.84L8462.02 432H8783.39L9190 1611.3H8922.77L8627.32 701.489H8618.1L8322.07 1611.3ZM8305.37 1147.76H8936.59V1342.39H8305.37V1147.76Z" fill="white"/>
<path d="M139.751 1533.5L838.31 184.813L1536.87 1533.5H139.751Z" stroke="#FF0651" stroke-width="170"/>
<path d="M555.528 1542.5L838.31 997.192L1121.09 1542.5H555.528Z" stroke="#FF0651" stroke-width="130"/>
</svg>
